<?xml version="1.0" encoding="utf-8"?>
<!-- Generator: Adobe Illustrator 26.3.1, SVG Export Plug-In . SVG Version: 6.00 Build 0)  -->
<svg version="1.1" id="Ebene_1" xmlns="http://www.w3.org/2000/svg" xmlns:xlink="http://www.w3.org/1999/xlink" x="0px" y="0px"
     viewBox="0 0 169.47 133.25" style="enable-background:new 0 0 169.47 133.25;" xml:space="preserve">
<style type="text/css">
	.st0{fill-rule:evenodd;clip-rule:evenodd;fill:#d60219;}
</style>
    <g id="Climate-Icon-Color">
	<path id="Fill-90" class="st0" d="M89.24,60.92c-5.38,0-8.98,4.36-8.98,9.49v0.11c0,5.12,3.7,9.59,9.09,9.59
		c5.42,0,9.02-4.36,9.02-9.49v-0.1C98.38,65.38,94.67,60.92,89.24,60.92L89.24,60.92z M135.15,96.8H112.1v-6.07l10.9-8.32
		c2.7-2.12,3.74-3.5,3.74-5.24c0-1.82-1.29-2.95-3.24-2.95c-1.96,0-3.5,1.13-5.79,3.73l-5.44-4.53c3.11-4.03,6.19-6.24,11.85-6.24
		c6.36,0,10.72,3.79,10.72,9.28v0.08c0,4.66-2.42,7.09-6.73,10.19l-4.99,3.49h12.02L135.15,96.8z M108.43,70.51
		c0,10.2-8.23,18.47-19.19,18.47s-19.09-8.16-19.09-18.37v-0.1c0-10.2,8.23-18.47,19.19-18.47s19.09,8.16,19.09,18.37V70.51z
		 M52.42,88.98c-10.15,0-18.31-7.76-18.31-18.37v-0.1c0-10.36,7.96-18.47,18.72-18.47c7.26,0,11.93,3.04,15.08,7.41l-7.41,5.73
		c-2.03-2.53-4.36-4.16-7.76-4.16c-4.98,0-8.48,4.21-8.48,9.39v0.11c0,5.33,3.5,9.49,8.48,9.49c3.7,0,5.88-1.74,8.01-4.33l7.41,5.28
		C64.82,85.59,60.29,88.98,52.42,88.98L52.42,88.98z M151.67,55.81c0.33-1.91,0.54-3.87,0.54-5.87c0-18.64-15.12-33.74-33.75-33.74
		c-5.62,0-10.91,1.4-15.57,3.83c-6.63-9.72-17.77-16.1-30.43-16.1c-20.33,0-36.79,16.48-36.79,36.8c0,0.06,0.01,0.11,0.01,0.16
		C18.47,42.43,5,56.86,5,74.47c0,18.63,15.09,33.72,33.74,33.72c0.86,0,1.7-0.06,2.54-0.12c10.1,12.91,25.79,21.25,43.46,21.25
		c12.04,0,23.14-3.9,32.21-10.45c3.39,1.03,6.99,1.6,10.71,1.6c20.34,0,36.81-16.47,36.81-36.81
		C164.47,72.52,159.5,62.55,151.67,55.81L151.67,55.81z"/>
</g>
</svg>
